<svg width="350" height="83" viewBox="0 0 350 83" fill="none" xmlns="http://www.w3.org/2000/svg">
<path d="M182.961 19.4277C181.459 19.4277 180.258 19.9284 179.356 20.9299C178.355 21.9313 177.954 23.3333 177.954 25.0358V46.3662C177.954 48.8698 177.153 50.9728 175.551 52.5751C174.149 53.9771 172.446 54.578 170.444 54.578C168.14 54.578 166.237 53.7768 164.735 52.2747C163.233 50.7725 162.532 48.8698 162.532 46.5665V24.9356C162.532 23.133 162.031 21.731 161.03 20.7296C160.129 19.8283 158.927 19.3276 157.525 19.3276C156.023 19.3276 154.821 19.8283 153.92 20.8297C152.918 21.8312 152.418 23.2332 152.418 24.9356V46.5665C152.418 51.5737 154.12 55.7797 157.625 59.1845C161.13 62.5894 165.436 64.392 170.644 64.392C175.351 64.392 179.456 62.6895 182.761 59.3848C186.366 55.8798 188.069 51.5737 188.069 46.3662V26.1373C188.069 24.1345 187.868 22.7325 187.368 21.9313C186.466 20.2289 184.964 19.4277 182.961 19.4277Z" fill="white"/>
<path d="M228.226 40.6581C225.923 38.7554 222.017 37.1531 216.409 35.7511C212.804 34.8498 211.001 33.4478 211.001 31.4449C211.001 30.3433 211.502 29.4421 212.403 28.6409C213.405 27.8398 214.607 27.4392 216.009 27.4392C217.511 27.4392 219.213 28.1402 221.016 29.5422C221.817 30.1431 222.518 30.7439 223.319 31.3448C224.12 31.9456 224.921 32.2461 225.622 32.2461C226.924 32.2461 227.926 31.8455 228.827 30.9442C229.728 30.0429 230.129 28.8412 230.129 27.1388C230.129 25.1359 228.827 23.3333 226.323 21.6309C223.519 19.8283 220.114 19.0272 216.209 19.0272C211.702 19.0272 208.097 20.2289 205.293 22.7325C202.489 25.1359 201.087 28.3405 201.087 32.2461C201.087 35.5508 202.089 38.1545 204.192 39.9571C205.894 41.4592 208.698 42.7611 212.704 43.9628C216.71 45.1645 218.913 45.8655 219.514 46.1659C221.316 46.9671 222.217 48.1688 222.217 49.7711C222.217 51.2732 221.717 52.3748 220.715 53.3763C219.714 54.2775 218.412 54.7783 216.81 54.7783C214.807 54.7783 212.604 53.6767 210 51.3734C208.097 49.671 206.295 48.7697 204.692 48.7697C203.391 48.7697 202.289 49.2704 201.388 50.2718C200.486 51.2732 199.986 52.3748 199.986 53.6767C199.986 56.3805 201.488 58.784 204.592 60.887C207.897 63.1903 211.903 64.2918 216.71 64.2918C221.216 64.2918 225.021 62.99 227.926 60.2861C230.83 57.5823 232.332 54.1774 232.332 50.0715C232.432 46.0658 231.03 42.8612 228.226 40.6581Z" fill="white"/>
<path d="M275.393 19.4277C273.891 19.4277 272.69 19.9285 271.688 20.9299C270.687 21.9313 270.186 23.2332 270.186 25.0358V36.7525H253.863V25.0358C253.863 23.2332 253.362 21.8312 252.361 20.8298C251.459 19.9285 250.258 19.4277 248.856 19.4277C247.353 19.4277 246.152 19.9285 245.25 20.9299C244.249 21.9313 243.748 23.3333 243.748 25.0358V58.5837C243.748 60.3863 244.249 61.6881 245.25 62.6895C246.252 63.691 247.454 64.1917 248.856 64.1917C250.258 64.1917 251.459 63.691 252.461 62.6895C253.462 61.6881 253.963 60.2861 253.963 58.4835V45.9657H270.286V58.4835C270.286 60.2861 270.787 61.588 271.788 62.6895C272.79 63.691 273.991 64.1917 275.393 64.1917C276.795 64.1917 277.997 63.691 278.999 62.6895C280 61.6881 280.501 60.2861 280.501 58.5837V25.0358C280.501 23.2332 280 21.9313 279.099 20.9299C278.097 19.8283 276.896 19.4277 275.393 19.4277Z" fill="white"/>
<path d="M327.768 54.3777L313.348 41.0586L325.866 28.741C327.668 27.0386 328.469 25.4363 328.469 24.0343C328.469 22.6323 327.969 21.5307 327.067 20.5293C326.066 19.5279 324.964 19.1273 323.562 19.1273C322.16 19.1273 320.558 20.0286 318.856 21.731L304.134 36.5522V24.9356C304.134 23.133 303.634 21.731 302.632 20.6294C301.731 19.628 300.529 19.2274 299.127 19.2274C297.625 19.2274 296.423 19.7282 295.522 20.7296C294.521 21.731 294.02 23.133 294.02 24.9356V58.4835C294.02 60.2861 294.521 61.588 295.522 62.6895C296.524 63.691 297.725 64.1917 299.127 64.1917C300.529 64.1917 301.731 63.691 302.732 62.6895C303.734 61.6881 304.235 60.2861 304.235 58.4835V45.8655L321.059 61.6881C322.761 63.2904 324.263 64.0915 325.665 64.0915C327.067 64.0915 328.269 63.5908 329.27 62.6895C330.272 61.7882 330.773 60.5865 330.773 59.1845C330.572 57.7825 329.671 56.1802 327.768 54.3777Z" fill="white"/>
<path d="M348.398 20.7296C347.496 19.8283 346.295 19.3276 344.893 19.3276C343.391 19.3276 342.189 19.8283 341.288 20.8297C340.286 21.8312 339.785 23.2332 339.785 24.9356V58.4835C339.785 60.2861 340.286 61.588 341.288 62.5894C342.289 63.5908 343.491 64.0915 344.893 64.0915C346.295 64.0915 347.496 63.5908 348.498 62.5894C349.499 61.588 350 60.186 350 58.4835V24.9356C349.9 23.2332 349.399 21.8312 348.398 20.7296Z" fill="white"/>
<path d="M103.147 19.8283C100.343 19.8283 98.0401 22.1316 98.0401 24.9356V58.784C98.0401 61.588 100.343 63.8913 103.147 63.8913C105.951 63.8913 108.255 61.588 108.255 58.784V24.9356C108.255 22.0315 105.951 19.8283 103.147 19.8283Z" fill="white"/>
<path d="M122.175 41.0587L135.894 26.638C137.797 24.6352 137.797 21.4306 135.694 19.4277C133.691 17.525 130.486 17.525 128.484 19.628L111.259 37.6538C109.356 39.6566 109.356 42.8612 111.459 44.7639L146.409 78.5122C147.411 79.4134 148.712 79.9142 149.914 79.9142C151.216 79.9142 152.618 79.4135 153.619 78.412C155.522 76.4092 155.522 73.2046 153.519 71.2017L122.175 41.0587Z" fill="white"/>
<path d="M42.5608 49.2704C40.7582 51.073 37.9542 51.1731 36.0515 49.3705L19.7282 33.8484C17.9256 32.1459 17.8255 29.1416 19.5279 27.3391C21.2303 25.5365 24.1345 25.4363 26.0372 27.1388L39.0558 39.5565L67.9971 9.61372C60.7868 3.60514 51.5737 0 41.4592 0C18.5265 0 0 18.5265 0 41.4592C0 64.392 18.5265 82.9185 41.4592 82.9185C64.392 82.9185 82.9185 64.392 82.9185 41.4592C82.9185 31.9456 79.7139 23.133 74.3061 16.2232L42.5608 49.2704ZM55.0787 61.3877H24.4349C21.9313 61.3877 19.8283 59.2847 19.8283 56.7811C19.8283 54.2775 21.9313 52.1745 24.4349 52.1745H55.0787C57.5823 52.1745 59.6853 54.2775 59.6853 56.7811C59.6853 59.2847 57.6824 61.3877 55.0787 61.3877Z" fill="white"/>
</svg>
