<svg width="73" height="73" viewBox="0 0 73 73" fill="none" xmlns="http://www.w3.org/2000/svg">
<path d="M65.4 14.3L37.4 43.4C35.9 45 33.3 45.1 31.7 43.5L17.3 29.8C15.7 28.3 15.6 25.7 17.2 24.1C18.7 22.5 21.3 22.4 22.9 24L34.4 34.9L59.8 8.5C53.5 3.2 45.4 0 36.5 0C16.3 0 0 16.4 0 36.5C0 56.6 16.4 73 36.5 73C56.6 73 73 56.6 73 36.5C73 28.2 70.2 20.4 65.4 14.3ZM48.5 54H21.5C19.3 54 17.5 52.2 17.5 50C17.5 47.8 19.3 46 21.5 46H48.5C50.7 46 52.5 47.8 52.5 50C52.5 52.2 50.7 54 48.5 54Z" fill="#00E6B2"/>
</svg>
